<svg width="100%" height="100%" viewBox="0 0 14 14" fill="none" xmlns="http://www.w3.org/2000/svg">
  <path d="M13.7079 0.70875C13.3179 0.31875 12.6879 0.31875 12.2979 0.70875L7.40793 5.58875L2.51793 0.69875C2.12793 0.30875 1.49793 0.30875 1.10793 0.69875C0.71793 1.08875 0.71793 1.71875 1.10793 2.10875L5.99793 6.99875L1.10793 11.8887C0.71793 12.2787 0.71793 12.9087 1.10793 13.2987C1.49793 13.6887 2.12793 13.6887 2.51793 13.2987L7.40793 8.40875L12.2979 13.2987C12.6879 13.6887 13.3179 13.6887 13.7079 13.2987C14.0979 12.9087 14.0979 12.2787 13.7079 11.8887L8.81793 6.99875L13.7079 2.10875C14.0879 1.72875 14.0879 1.08875 13.7079 0.70875Z" fill="currentColor"/>
  </svg>
  