<svg xmlns="http://www.w3.org/2000/svg" width="100%" height="100%" viewBox="0 0 16 20">
  <g id="Page-1" transform="translate(5 -3)">
    <g id="icon-57-document-download" transform="translate(-5 3)">
      <path id="document-download" d="M14.579,19.333l-2.737-2.407-.632.556L15,20.815l3.789-3.333-.632-.556-2.737,2.407V11.148h-.842v8.185ZM17.526,3H8.687A1.6,1.6,0,0,0,7,4.487V21.513A1.592,1.592,0,0,0,8.682,23H21.318A1.592,1.592,0,0,0,23,21.525V8.185L17.947,3Zm-.421.741H8.68a.8.8,0,0,0-.838.737V21.522a.8.8,0,0,0,.842.737H21.316a.794.794,0,0,0,.842-.736V8.926h-3.37A1.588,1.588,0,0,1,17.105,7.44v-3.7Zm.842.37V7.438a.8.8,0,0,0,.839.747h3.118L17.947,4.111Z" transform="translate(-7 -3)" fill="#fff" fill-rule="evenodd"/>
    </g>
  </g>
</svg>
