<svg xmlns="http://www.w3.org/2000/svg" width="100%" height="100%" viewBox="0 0 49.2 36.9"><g transform="translate(0 -3)"><path d="M41,3H8.2A8.224,8.224,0,0,0,0,11.2V31.7a8.224,8.224,0,0,0,8.2,8.2H41a8.224,8.224,0,0,0,8.2-8.2V11.2A8.224,8.224,0,0,0,41,3Zm3.28,11.89L28.085,25.755A6.911,6.911,0,0,1,24.6,26.78a6.911,6.911,0,0,1-3.485-1.025L4.92,14.89a2.168,2.168,0,0,1-.41-2.87,2.168,2.168,0,0,1,2.87-.41L23.575,22.475a2.221,2.221,0,0,0,2.255,0L42.025,11.61a2.016,2.016,0,0,1,2.87.615A2.236,2.236,0,0,1,44.28,14.89Z" fill="#00c9e3"/></g></svg>
