<svg xmlns="http://www.w3.org/2000/svg" width="100%" height="100%" viewBox="0 0 49.2 47.026">
  <path d="M46.624,70.574H57.168V102.3H46.624Zm5.343-15.3c-3.609,0-5.967,2.369-5.967,5.479a5.461,5.461,0,0,0,5.829,5.484H51.9c3.678,0,5.968-2.438,5.968-5.484C57.795,57.647,55.574,55.278,51.967,55.278Zm31.09,14.55a10.468,10.468,0,0,0-9.5,5.237V70.574H63.006c.14,2.977,0,31.731,0,31.731H73.554V84.584a7.261,7.261,0,0,1,.347-2.575,5.775,5.775,0,0,1,5.41-3.857c3.819,0,5.344,2.911,5.344,7.175V102.3H95.2V84.109C95.2,74.363,90,69.828,83.057,69.828Z" transform="translate(-46 -55.278)" fill="currentColor"/>
</svg>
