<svg xmlns="http://www.w3.org/2000/svg" width="100%" height="100%" viewBox="0 0 49.2 35.3"><path d="M42.4,17.7c-5.3,0-9.3,3.5-10.9,9a48.4,48.4,0,0,1-5.6-12.1H20.3V29.3a5.3,5.3,0,0,1-10.6,0V14.7H4.3V29.4a10.9,10.9,0,1,0,21.8,0V26.9a51.489,51.489,0,0,0,4,6.7L26.6,49.9h5.7L34.7,38a13.928,13.928,0,0,0,7.7,2.2,11.251,11.251,0,0,0,0-22.5Zm0,16.9a10.218,10.218,0,0,1-6.3-2.5l.6-2.2v-.1c.4-2.4,1.7-6.4,5.8-6.4A5.591,5.591,0,0,1,48.1,29,5.881,5.881,0,0,1,42.4,34.6Z" transform="translate(-4.3 -14.6)" fill="#00c9e3"/></svg>
